<?xml version="1.0" standalone="no"?>
<!DOCTYPE svg PUBLIC "-//W3C//DTD SVG 20010904//EN"
 "http://www.w3.org/TR/2001/REC-SVG-20010904/DTD/svg10.dtd">
<svg version="1.0" xmlns="http://www.w3.org/2000/svg"
 width="400.000000pt" height="400.000000pt" viewBox="0 0 400.000000 400.000000"
 preserveAspectRatio="xMidYMid meet">
<metadata>
Created by potrace 1.14, written by Peter Selinger 2001-2017
</metadata>
<g transform="translate(0.000000,400.000000) scale(0.100000,-0.100000)"
fill="#000000" stroke="none">
<path d="M3070 3334 c-139 -27 -236 -80 -329 -179 -61 -66 -119 -169 -141
-252 -6 -24 -13 -43 -15 -43 -3 0 -26 16 -51 35 -25 20 -83 53 -128 74 -212
101 -458 102 -670 2 l-88 -40 7 -53 c8 -63 12 -107 14 -131 1 -15 6 -14 39 12
45 36 153 87 219 102 91 21 181 19 308 -6 54 -11 173 -75 233 -124 71 -59 116
-118 173 -229 51 -99 135 -194 214 -241 240 -144 531 -114 722 75 95 95 161
220 176 337 l5 39 -41 -42 c-23 -23 -72 -56 -109 -73 -44 -21 -72 -42 -84 -62
-57 -99 -197 -183 -320 -192 -321 -25 -545 299 -410 591 65 139 216 237 369
239 42 0 60 7 97 33 40 29 109 56 165 67 16 3 11 7 -20 21 -103 45 -232 60
-335 40z"/>
<path d="M874 3304 c-38 -7 -82 -17 -99 -24 l-30 -13 38 -8 c51 -12 91 -34
138 -76 27 -24 52 -37 77 -40 102 -11 190 -52 261 -122 40 -40 80 -95 86 -121
1 -3 7 -18 14 -34 12 -30 29 -134 25 -158 -1 -7 -5 -33 -9 -58 -10 -69 -58
-160 -115 -216 -195 -196 -529 -148 -658 94 -23 44 -39 60 -64 70 -39 14 -110
74 -138 117 l-20 30 0 -40 c0 -59 25 -164 51 -221 36 -76 73 -127 138 -187
113 -104 221 -148 381 -152 114 -4 176 8 263 49 28 14 54 23 58 21 3 -3 9 -32
13 -66 17 -151 89 -303 202 -431 41 -47 135 -123 182 -148 20 -10 43 -23 50
-28 9 -6 -7 -29 -61 -84 -123 -124 -180 -271 -173 -444 7 -164 93 -332 219
-428 19 -14 36 -26 39 -26 3 0 -4 26 -15 58 -16 48 -18 68 -10 124 6 50 5 71
-4 84 -25 34 -54 127 -59 190 -10 111 29 221 110 310 74 83 182 131 306 135
89 3 215 27 288 56 143 56 290 175 374 305 52 80 104 205 114 279 4 30 2 37
-18 46 -13 6 -47 29 -77 52 -30 22 -56 39 -57 38 -1 -1 -5 -27 -8 -57 -36
-316 -317 -555 -640 -545 -370 12 -649 351 -592 720 4 27 18 70 31 95 64 127
85 295 51 421 -79 297 -366 484 -662 433z"/>
<path d="M613 3156 c-173 -55 -230 -283 -102 -414 52 -53 113 -75 194 -70 73
5 104 18 158 67 101 91 100 259 -1 357 -69 67 -157 88 -249 60z"/>
<path d="M3387 3158 c-56 -15 -132 -89 -155 -150 -89 -240 188 -440 393 -284
17 13 43 47 59 77 87 158 -21 352 -202 364 -31 2 -74 -1 -95 -7z"/>
<path d="M2400 1417 c-41 -17 -77 -33 -79 -34 -3 -2 10 -15 27 -30 18 -14 47
-49 66 -77 87 -132 94 -281 20 -429 -14 -26 -22 -52 -19 -57 12 -20 6 -146 -9
-187 -8 -24 -12 -43 -8 -43 5 0 33 23 64 50 180 160 241 427 151 657 -24 62
-109 183 -126 182 -7 -1 -46 -15 -87 -32z"/>
<path d="M1987 946 c-114 -42 -174 -138 -164 -262 10 -127 97 -212 226 -222
124 -8 224 60 258 177 34 118 -22 243 -133 296 -48 22 -141 28 -187 11z"/>
</g>
</svg>
